<svg width="214" height="96" viewBox="0 0 214 96" fill="none" xmlns="http://www.w3.org/2000/svg">
<path fill-rule="evenodd" clip-rule="evenodd" d="M64.5701 31.3478C60.6947 27.4722 55.5954 25.0602 50.1411 24.5229C44.6867 23.9855 39.2147 25.356 34.6576 28.4009C30.1004 31.4457 26.74 35.9765 25.149 41.2213C23.558 46.466 23.8348 52.1001 25.9322 57.1636C28.0297 62.2271 31.818 66.4067 36.6517 68.9902C41.4853 71.5737 47.0653 72.4013 52.4407 71.3319C57.8162 70.2625 62.6545 67.3623 66.1313 63.1255C69.6081 58.8887 71.5083 53.5774 71.508 48.0967C71.5068 41.8148 69.0114 35.7905 64.5701 31.3478ZM56.234 68.4151C51.8751 70.221 47.0511 70.5773 42.4742 69.4313C37.8973 68.2853 33.8104 65.6978 30.8169 62.0509C27.8234 58.404 26.0822 53.8911 25.8503 49.1788C25.6184 44.4664 26.9082 39.8043 29.5291 35.8812C32.1501 31.958 35.9633 28.9818 40.4056 27.392C44.8478 25.8022 49.6836 25.6832 54.1986 27.0525C58.7137 28.4218 62.6687 31.2068 65.4795 34.9962C68.2904 38.7857 69.808 43.3786 69.8082 48.0967C69.8083 52.4461 68.5188 56.6979 66.1026 60.3145C63.6864 63.9311 60.2521 66.7501 56.234 68.4151Z" fill="white"/>
<path fill-rule="evenodd" clip-rule="evenodd" d="M37.582 33.5685C40.9542 35.6429 42.9976 38.3376 43.2892 42.2234C43.67 45.6054 43.7941 46.7915 44.0336 49.2716C43.7463 49.2319 43.4537 49.2606 43.1796 49.3554C42.9055 49.4502 42.6577 49.6084 42.4563 49.8171C42.2549 50.0258 42.1057 50.2792 42.0209 50.5565C41.936 50.8338 41.9178 51.1273 41.9678 51.413C42.1552 52.3137 43.3102 53.0085 44.2209 52.9018C45.9579 49.7083 46.9504 47.1811 47.0174 44.1427C47.0459 39.5522 46.5794 36.0238 46.7693 33.4494C46.9219 32.3539 47.2929 31.4743 47.9976 30.844C48.7035 31.478 49.0769 32.3576 49.2283 33.4494C49.4256 36.0238 48.9553 39.5584 48.9802 44.1427C49.0484 47.1811 50.0434 49.7083 51.7767 52.9018C52.6873 53.0109 53.8424 52.3149 54.0297 51.413C54.0798 51.1273 54.0616 50.8338 53.9767 50.5565C53.8918 50.2792 53.7426 50.0258 53.5413 49.8171C53.3399 49.6084 53.0921 49.4502 52.818 49.3554C52.5439 49.2606 52.2513 49.2319 51.964 49.2716C52.2022 46.7903 52.3238 45.6054 52.7084 42.2234C52.9938 38.3376 55.0372 35.6478 58.4093 33.5685L58.4019 58.878L52.5893 58.8408C51.1327 64.7861 49.2394 63.7799 47.9988 65.7625C46.7581 63.7774 44.8623 64.7861 43.4083 58.8408L37.5969 58.878L37.582 33.5685ZM47.9951 48.3101C47.7023 49.8522 46.8896 51.9725 46.0881 53.2975C47.0732 53.5308 47.5286 53.9414 47.9951 54.6226C48.4628 53.9414 48.9206 53.5308 49.9057 53.2975C49.1042 51.9725 48.2928 49.8535 47.9951 48.3101ZM55.6724 50.1711L56.6116 50.1624L56.619 37.2483C55.5893 38.644 55.0583 39.1093 54.5372 41.7048C54.3399 43.0993 54.1538 45.026 53.8647 47.9279C54.485 48.1761 55.4962 49.3435 55.6724 50.1698V50.1711ZM55.7232 51.939C55.4466 53.0817 54.2952 54.2963 52.4243 54.5829C52.6654 55.4051 52.7525 56.2649 52.6811 57.1188L56.6153 57.1535L56.6327 51.9427L55.7232 51.939ZM50.6365 54.9079C49.2543 55.3037 48.8995 56.0344 48.7754 57.0456L51.0087 57.0704C50.9454 56.1771 50.9243 55.6635 50.6427 54.9079H50.6365ZM48.8598 58.8359L50.8685 58.8297C50.5335 60.45 49.9107 61.4351 48.8586 62.5033L48.8598 58.8359ZM40.3215 50.1686L39.3823 50.1599L39.3736 37.2458C40.4058 38.6416 40.9343 39.1068 41.4579 41.7023C41.6552 43.0968 41.8413 45.0235 42.1291 47.9255C41.5088 48.1736 40.5001 49.3411 40.3215 50.1673V50.1686ZM40.2718 51.9365C40.5498 53.0792 41.6998 54.2938 43.5708 54.5804C43.33 55.4027 43.2421 56.2622 43.3115 57.1163L39.3773 57.151L39.3637 51.9402L40.2718 51.9365ZM45.3586 54.9054C46.742 55.3012 47.0956 56.032 47.2196 57.0431L44.9864 57.0679C45.0485 56.1746 45.0683 55.661 45.3512 54.9054H45.3586ZM47.1353 58.8334L45.1254 58.8272C45.4616 60.4475 46.0856 61.4326 47.1353 62.5008V58.8334Z" fill="white"/>
<path fill-rule="evenodd" clip-rule="evenodd" d="M37.2495 28.8566C37.7991 28.5502 38.3661 28.2735 38.9405 28.0154V15.5319H26.1429V1.69475H69.8496V15.5319H57.0507V28.0514C57.6297 28.3144 58.1934 28.601 58.7418 28.9112V17.2217H71.5369V0H24.4531V17.2179H37.2495V28.8566Z" fill="white"/>
<path fill-rule="evenodd" clip-rule="evenodd" d="M27.8805 57.0606H15.5234V69.8568H1.68609V26.1532H15.5221V38.9494H27.9475C28.2114 38.3704 28.4976 37.8067 28.8061 37.2584H17.2119V24.4622H0V71.5466H17.2181V58.7504H28.7391C28.4264 58.197 28.1374 57.635 27.8805 57.0606Z" fill="white"/>
<path fill-rule="evenodd" clip-rule="evenodd" d="M58.7418 67.2065C58.1942 67.5159 57.6305 67.8021 57.0507 68.0651V80.4717H69.8496V94.3088H26.1429V80.4767H38.9393V68.1246C38.3649 67.8666 37.8028 67.5775 37.2482 67.2698V78.7819H24.4531V95.9999H71.5369V78.7819H58.7418V67.2065Z" fill="white"/>
<path fill-rule="evenodd" clip-rule="evenodd" d="M78.7822 24.4622V37.2584H67.0938C67.4047 37.8076 67.6917 38.3712 67.9548 38.9494H80.4693V26.1532H94.3066V69.8568H80.4693V57.0606H67.9955C67.7375 57.6363 67.4609 58.202 67.1544 58.7516H78.7822V71.5478H96.0001V24.4622H78.7822Z" fill="white"/>
<path fill-rule="evenodd" clip-rule="evenodd" d="M65.2954 34.7522L85.7951 14.2527C86.6636 13.3843 86.4465 11.027 86.4378 9.15608L86.4452 9.14862H86.439C84.5681 9.13994 82.2059 8.91787 81.3399 9.79129L60.793 30.3379C62.4969 31.5867 64.0132 33.0733 65.2954 34.7522Z" fill="white"/>
<path fill-rule="evenodd" clip-rule="evenodd" d="M30.2186 34.9333C31.4844 33.2371 32.9887 31.7327 34.685 30.4669L14.0066 9.79128C13.1381 8.91661 10.7722 9.14116 8.89998 9.14861L8.89253 9.14117C8.8826 11.0146 8.65682 13.3855 9.53522 14.2515L30.2186 34.9333Z" fill="white"/>
<path fill-rule="evenodd" clip-rule="evenodd" d="M34.4778 65.5666C32.79 64.2922 31.3011 62.774 30.0598 61.0618L24.5425 66.579C23.3179 65.2862 22.1095 63.9736 20.9445 62.6188L19.4557 64.1076C20.5897 65.5534 21.7787 66.9508 23.0226 68.2998C22.7286 68.4512 22.5363 68.7489 22.4532 69.2055C22.3225 69.9218 22.5706 70.3767 23.1976 70.5702L21.7919 70.3134C20.9863 70.1645 20.5094 70.4954 20.3614 71.3059C20.2236 72.0615 20.509 72.523 21.2075 72.7017L19.6815 72.4238C18.8725 72.2749 18.3949 72.6061 18.2485 73.4163C18.1096 74.183 18.4024 74.6458 19.117 74.8195L17.555 74.5341C16.746 74.3853 16.2709 74.7165 16.122 75.5267C15.9892 76.2587 16.2522 76.7152 16.9024 76.9063L15.4582 76.642C14.6501 76.4956 14.1725 76.8265 14.0252 77.6346C13.8838 78.41 14.189 78.8752 14.9297 79.0452L13.3515 78.7574C12.885 78.6718 12.5315 78.7574 12.2858 78.9869C12.0736 78.6817 11.8788 78.4062 11.6865 78.1792C11.5631 78.0208 11.4059 77.8919 11.2264 77.8019C11.0469 77.7118 10.8496 77.6629 10.6488 77.6586C10.448 77.6543 10.2488 77.6948 10.0656 77.7771C9.88245 77.8595 9.7199 77.9816 9.5898 78.1345C8.25483 79.6606 8.81685 82.5166 10.8851 84.6989L10.8962 84.7101L10.9086 84.7225C13.091 86.7894 15.9471 87.3527 17.4731 86.0177C17.6257 85.8871 17.7474 85.7243 17.8295 85.541C17.9116 85.3576 17.9519 85.1584 17.9476 84.9575C17.9434 84.7567 17.8946 84.5594 17.8048 84.3797C17.715 84.2 17.5864 84.0425 17.4284 83.9185C17.1542 83.684 16.8081 83.4483 16.421 83.1741C16.4297 83.1369 16.4421 83.1022 16.4495 83.0625C16.5897 82.2908 16.2895 81.8218 15.5612 81.6555L17.1443 81.9446C17.9532 82.091 18.4272 81.7622 18.5773 80.9521C18.7187 80.1717 18.4098 79.7015 17.6579 79.539L19.251 79.8293C20.0562 79.9782 20.5338 79.6469 20.6815 78.8367C20.8167 78.1035 20.5574 77.647 19.9036 77.4571L21.3477 77.7214C22.1542 77.8678 22.631 77.5369 22.7782 76.7289C22.9197 75.9634 22.6244 75.4981 21.9098 75.3269L23.4755 75.6123C24.2819 75.7587 24.7588 75.4278 24.906 74.6197C25.0425 73.8753 24.7646 73.4113 24.0809 73.229L25.5896 73.5044C26.3952 73.6508 26.8721 73.3199 27.0201 72.5118C27.0313 72.4473 27.035 72.3878 27.0412 72.3282C28.4671 73.6516 29.9518 74.9204 31.4952 76.1346L32.9841 74.6458C31.6317 73.4746 30.3154 72.2637 29.0139 71.0317L34.4778 65.5666Z" fill="white"/>
<path fill-rule="evenodd" clip-rule="evenodd" d="M85.757 78.1269C85.6266 77.9739 85.4639 77.8518 85.2805 77.7694C85.0971 77.6871 84.8977 77.6466 84.6967 77.6509C84.4958 77.6552 84.2983 77.7041 84.1186 77.7942C83.9389 77.8842 83.7814 78.0131 83.6577 78.1716C83.4232 78.4458 83.1863 78.7919 82.9133 79.179C82.8637 79.1666 82.8166 79.1505 82.762 79.1405C82.0606 79.0132 81.6085 79.2468 81.4059 79.8415L81.654 78.4768C81.8004 77.6679 81.4696 77.1902 80.6615 77.0438C79.9601 76.9164 79.5076 77.1505 79.3042 77.746L79.5523 76.3813C79.6987 75.5757 79.3679 75.0989 78.5598 74.9508C77.834 74.8168 77.3762 75.0749 77.1851 75.7175L77.4481 74.2796C77.5945 73.4707 77.2657 72.9955 76.4556 72.8467C75.7501 72.7184 75.2951 72.9542 75.0908 73.5538L75.339 72.1767C75.4854 71.3703 75.1578 70.8926 74.3464 70.7462C73.6281 70.6134 73.1727 70.8703 72.9817 71.4906L73.2435 70.0552C73.3899 69.2496 73.059 68.7727 72.2509 68.6247C72.1786 68.6125 72.1058 68.6042 72.0326 68.5999C73.3634 67.1657 74.6396 65.6727 75.8613 64.1211C75.365 63.6248 74.8688 63.1285 74.3725 62.6323C73.2062 63.9809 71.9978 65.2935 70.7745 66.5912L65.4235 61.2402C64.1575 62.9364 62.6532 64.4407 60.957 65.7066L66.3056 71.0551C65.0116 72.2821 63.7002 73.4918 62.3354 74.6642C62.8317 75.1605 63.328 75.6568 63.8242 76.153C65.27 75.0182 66.6679 73.8288 68.0177 72.5849C68.1691 72.8789 68.4669 73.0725 68.9247 73.1556C69.7038 73.2978 70.1744 72.9926 70.3365 72.24L70.0425 73.8528C69.8961 74.6584 70.227 75.1353 71.0351 75.2833C71.7522 75.414 72.2071 75.1659 72.3998 74.5389L72.138 75.9706C71.9916 76.7795 72.3192 77.256 73.1306 77.4036C73.8336 77.5318 74.286 77.2965 74.4879 76.6977L74.2397 78.0748C74.0933 78.8812 74.4242 79.3589 75.2323 79.5078C75.9593 79.6405 76.4159 79.3837 76.6069 78.7373L76.3439 80.1765C76.1975 80.9842 76.5263 81.4593 77.3365 81.6095C78.0362 81.7335 78.4878 81.5028 78.6913 80.9122L78.4432 82.2769C78.3588 82.7434 78.4432 83.0958 78.6727 83.3414C78.3787 83.5449 78.1119 83.7335 77.8935 83.9208C77.7353 84.0447 77.6065 84.2023 77.5167 84.3821C77.4269 84.5619 77.3781 84.7594 77.3741 84.9604C77.3701 85.1614 77.4108 85.3607 77.4934 85.544C77.5759 85.7273 77.6982 85.8899 77.8513 86.02C79.3774 87.355 82.2334 86.7917 84.4158 84.7248L84.4269 84.7124L84.4369 84.7012C86.5274 82.504 87.0944 79.6504 85.757 78.1269Z" fill="white"/>
<path d="M124.152 13.6094H121.527L118.383 21.9766L115.211 13.6094H112.559V24H114.227V15.5508L117.426 24H119.312L122.484 15.5781V24H124.152V13.6094Z" fill="white"/>
<path d="M126.771 14.6484H128.575V13.0078H126.771V14.6484ZM126.853 24H128.493V15.7969H126.853V24Z" fill="white"/>
<path d="M136.553 15.7969V19.0508H132.561V15.7969H130.92V24H132.561V20.582H136.553V24H138.194V15.7969H136.553Z" fill="white"/>
<path d="M140.539 14.6484H142.344V13.0078H140.539V14.6484ZM140.621 24H142.262V15.7969H140.621V24Z" fill="white"/>
<path d="M148.189 24.1367C149.939 24.1367 151.388 23.2344 151.853 21.6758L150.294 21.1836C149.966 22.1406 149.2 22.7422 148.189 22.7422C146.685 22.7422 145.755 21.6211 145.755 19.8984C145.755 18.1758 146.685 17.0547 148.189 17.0547C149.2 17.0547 149.939 17.6562 150.294 18.6133L151.853 18.1211C151.388 16.5625 149.966 15.6602 148.189 15.6602C145.755 15.6602 144.087 17.3828 144.087 19.8984C144.087 22.4141 145.755 24.1367 148.189 24.1367Z" fill="white"/>
<path d="M159.694 15.7969H152.147V17.2734H155.1V24H156.741V17.2734H159.694V15.7969Z" fill="white"/>
<path d="M161.601 20.418H167.918C167.972 20.2266 167.972 20.0898 167.972 19.8984C167.972 17.3281 166.414 15.6602 164.035 15.6602C161.601 15.6602 159.961 17.3828 159.961 19.8984C159.961 22.332 161.437 24.1367 164.172 24.1367C165.894 24.1367 167.015 23.4805 167.699 22.6602L166.578 21.6758C166.113 22.2773 165.347 22.7422 164.144 22.7422C162.695 22.7422 161.793 21.8398 161.601 20.418ZM164.035 17.0273C165.238 17.0273 166.086 17.8203 166.304 19.1602H161.629C161.875 17.8477 162.722 17.0273 164.035 17.0273Z" fill="white"/>
<path d="M173.954 15.6602C172.778 15.6602 171.794 16.1797 171.138 17.1094L171.028 15.7969H169.606V26.7344H171.247V22.9062C171.876 23.6992 172.833 24.1367 173.954 24.1367C176.06 24.1367 177.536 22.4141 177.536 19.8984C177.536 17.3281 176.114 15.6602 173.954 15.6602ZM173.517 22.7422C172.067 22.7422 171.138 21.6211 171.138 19.8984C171.138 18.1758 172.067 17.0547 173.517 17.0547C174.938 17.0547 175.868 18.1758 175.868 19.8984C175.868 21.6211 174.938 22.7422 173.517 22.7422Z" fill="white"/>
<path d="M182.725 24.1367C184.475 24.1367 185.924 23.2344 186.389 21.6758L184.83 21.1836C184.502 22.1406 183.737 22.7422 182.725 22.7422C181.221 22.7422 180.291 21.6211 180.291 19.8984C180.291 18.1758 181.221 17.0547 182.725 17.0547C183.737 17.0547 184.475 17.6562 184.83 18.6133L186.389 18.1211C185.924 16.5625 184.502 15.6602 182.725 15.6602C180.291 15.6602 178.623 17.3828 178.623 19.8984C178.623 22.4141 180.291 24.1367 182.725 24.1367Z" fill="white"/>
<path d="M194.23 15.7969H186.683V17.2734H189.636V24H191.277V17.2734H194.23V15.7969Z" fill="white"/>
<path d="M200.923 19.7891C201.661 19.4609 202.098 18.832 202.098 17.9297C202.098 16.4531 200.977 15.7969 199.173 15.7969H195.509V24H199.473C201.251 24 202.317 23.2344 202.317 21.7852C202.317 20.7734 201.825 20.1172 200.923 19.7891ZM197.067 17.082H199.255C200.02 17.082 200.485 17.4648 200.485 18.1211C200.485 18.8867 200.075 19.1875 199.173 19.1875H197.067V17.082ZM199.309 22.6875H197.067V20.418H199.227C200.13 20.418 200.677 20.8555 200.677 21.5664C200.677 22.25 200.157 22.6875 199.309 22.6875Z" fill="white"/>
<path d="M207.561 24.1367C210.022 24.1367 211.717 22.4141 211.717 19.8984C211.717 17.3281 210.076 15.6602 207.561 15.6602C205.1 15.6602 203.404 17.3828 203.404 19.8984C203.404 22.4688 205.045 24.1367 207.561 24.1367ZM207.561 22.7422C206.057 22.7422 205.072 21.6211 205.072 19.8984C205.072 18.1758 206.057 17.0547 207.561 17.0547C209.065 17.0547 210.049 18.1758 210.049 19.8984C210.049 21.6211 209.065 22.7422 207.561 22.7422Z" fill="white"/>
<path d="M118.027 35.7969L115.922 42.5781H115.266L112.859 35.7969H111.082L113.734 42.5781H112.559C112.012 43.125 111.738 43.7539 111.738 44.5195C111.738 45.9414 112.668 46.8711 114.062 46.8711C115.43 46.8711 116.359 45.9688 117.043 43.8906L119.777 35.7969H118.027ZM114.09 45.5039C113.543 45.5039 113.188 45.1211 113.188 44.5469C113.188 44.3008 113.242 44.082 113.379 43.8906H115.402L115.238 44.3828C114.992 45.0938 114.609 45.5039 114.09 45.5039Z" fill="white"/>
<path d="M128.569 44.1367C130.319 44.1367 131.768 43.2344 132.233 41.6758L130.674 41.1836C130.346 42.1406 129.581 42.7422 128.569 42.7422C127.065 42.7422 126.135 41.6211 126.135 39.8984C126.135 38.1758 127.065 37.0547 128.569 37.0547C129.581 37.0547 130.319 37.6562 130.674 38.6133L132.233 38.1211C131.768 36.5625 130.346 35.6602 128.569 35.6602C126.135 35.6602 124.467 37.3828 124.467 39.8984C124.467 42.4141 126.135 44.1367 128.569 44.1367Z" fill="white"/>
<path d="M140.976 35.7969H133.703V44H135.344V37.2734H139.336V44H140.976V35.7969Z" fill="white"/>
<path d="M147.614 35.6602C146.439 35.6602 145.454 36.1797 144.798 37.1094L144.689 35.7969H143.267V46.7344H144.907V42.9062C145.536 43.6992 146.493 44.1367 147.614 44.1367C149.72 44.1367 151.196 42.4141 151.196 39.8984C151.196 37.3281 149.775 35.6602 147.614 35.6602ZM147.177 42.7422C145.728 42.7422 144.798 41.6211 144.798 39.8984C144.798 38.1758 145.728 37.0547 147.177 37.0547C148.599 37.0547 149.528 38.1758 149.528 39.8984C149.528 41.6211 148.599 42.7422 147.177 42.7422Z" fill="white"/>
<path d="M159.366 42.5781C159.01 42.5781 158.846 42.4141 158.846 42.0586V38.3672C158.846 36.6719 157.643 35.6602 155.674 35.6602C154.252 35.6602 153.077 36.1523 152.12 37.0547L153.131 38.1211C153.787 37.4375 154.662 37.0273 155.592 37.0273C156.631 37.0273 157.315 37.4648 157.315 38.1211C157.315 38.75 156.713 38.8594 155.483 39.0234C153.87 39.2695 151.955 39.707 151.955 41.7031C151.955 43.1523 153.049 44.1367 154.635 44.1367C155.838 44.1367 156.932 43.5898 157.506 42.7695C157.616 43.6992 158.08 44.0547 159.092 44.0547C159.366 44.0547 159.584 44.0273 159.666 44V42.5781H159.366ZM154.909 42.7969C154.061 42.7969 153.569 42.3867 153.569 41.6211C153.569 40.5547 154.635 40.3906 155.674 40.2266C156.467 40.0898 156.959 40.0078 157.26 39.8164V40.8828C157.26 41.9219 156.166 42.7969 154.909 42.7969Z" fill="white"/>
<path d="M166.632 39.7891C167.371 39.4609 167.808 38.832 167.808 37.9297C167.808 36.4531 166.687 35.7969 164.882 35.7969H161.218V44H165.183C166.961 44 168.027 43.2344 168.027 41.7852C168.027 40.7734 167.535 40.1172 166.632 39.7891ZM162.777 37.082H164.965C165.73 37.082 166.195 37.4648 166.195 38.1211C166.195 38.8867 165.785 39.1875 164.882 39.1875H162.777V37.082ZM165.019 42.6875H162.777V40.418H164.937C165.84 40.418 166.386 40.8555 166.386 41.5664C166.386 42.25 165.867 42.6875 165.019 42.6875Z" fill="white"/>
<path d="M176.36 42.5781C176.005 42.5781 175.841 42.4141 175.841 42.0586V38.3672C175.841 36.6719 174.638 35.6602 172.669 35.6602C171.247 35.6602 170.071 36.1523 169.114 37.0547L170.126 38.1211C170.782 37.4375 171.657 37.0273 172.587 37.0273C173.626 37.0273 174.31 37.4648 174.31 38.1211C174.31 38.75 173.708 38.8594 172.478 39.0234C170.864 39.2695 168.95 39.707 168.95 41.7031C168.95 43.1523 170.044 44.1367 171.63 44.1367C172.833 44.1367 173.927 43.5898 174.501 42.7695C174.61 43.6992 175.075 44.0547 176.087 44.0547C176.36 44.0547 176.579 44.0273 176.661 44V42.5781H176.36ZM171.903 42.7969C171.056 42.7969 170.563 42.3867 170.563 41.6211C170.563 40.5547 171.63 40.3906 172.669 40.2266C173.462 40.0898 173.954 40.0078 174.255 39.8164V40.8828C174.255 41.9219 173.161 42.7969 171.903 42.7969Z" fill="white"/>
<path d="M185.35 44L182.26 39.8164L185.213 35.7969H183.354L181.221 38.668L179.115 35.7969H177.174L180.127 39.8164L177.01 44H178.951L181.166 40.9375L183.381 44H185.35Z" fill="white"/>
<path d="M117.699 59.7891C118.438 59.4609 118.875 58.832 118.875 57.9297C118.875 56.4531 117.754 55.7969 115.949 55.7969H112.285V64H116.25C118.027 64 119.094 63.2344 119.094 61.7852C119.094 60.7734 118.602 60.1172 117.699 59.7891ZM113.844 57.082H116.031C116.797 57.082 117.262 57.4648 117.262 58.1211C117.262 58.8867 116.852 59.1875 115.949 59.1875H113.844V57.082ZM116.086 62.6875H113.844V60.418H116.004C116.906 60.418 117.453 60.8555 117.453 61.5664C117.453 62.25 116.934 62.6875 116.086 62.6875Z" fill="white"/>
<path d="M121.822 60.418H128.138C128.193 60.2266 128.193 60.0898 128.193 59.8984C128.193 57.3281 126.634 55.6602 124.255 55.6602C121.822 55.6602 120.181 57.3828 120.181 59.8984C120.181 62.332 121.658 64.1367 124.392 64.1367C126.115 64.1367 127.236 63.4805 127.919 62.6602L126.798 61.6758C126.333 62.2773 125.568 62.7422 124.365 62.7422C122.915 62.7422 122.013 61.8398 121.822 60.418ZM124.255 57.0273C125.458 57.0273 126.306 57.8203 126.525 59.1602H121.849C122.095 57.8477 122.943 57.0273 124.255 57.0273Z" fill="white"/>
<path d="M135.952 55.7969H128.405V57.2734H131.358V64H132.999V57.2734H135.952V55.7969Z" fill="white"/>
<path d="M137.859 60.418H144.176C144.23 60.2266 144.23 60.0898 144.23 59.8984C144.23 57.3281 142.672 55.6602 140.293 55.6602C137.859 55.6602 136.219 57.3828 136.219 59.8984C136.219 62.332 137.695 64.1367 140.43 64.1367C142.152 64.1367 143.273 63.4805 143.957 62.6602L142.836 61.6758C142.371 62.2773 141.605 62.7422 140.402 62.7422C138.953 62.7422 138.051 61.8398 137.859 60.418ZM140.293 57.0273C141.496 57.0273 142.344 57.8203 142.562 59.1602H137.887C138.133 57.8477 138.98 57.0273 140.293 57.0273Z" fill="white"/>
<path d="M150.212 55.6602C149.036 55.6602 148.052 56.1797 147.396 57.1094L147.286 55.7969H145.864V66.7344H147.505V62.9062C148.134 63.6992 149.091 64.1367 150.212 64.1367C152.318 64.1367 153.794 62.4141 153.794 59.8984C153.794 57.3281 152.372 55.6602 150.212 55.6602ZM149.775 62.7422C148.325 62.7422 147.396 61.6211 147.396 59.8984C147.396 58.1758 148.325 57.0547 149.775 57.0547C151.196 57.0547 152.126 58.1758 152.126 59.8984C152.126 61.6211 151.196 62.7422 149.775 62.7422Z" fill="white"/>
<path d="M161.963 62.5781C161.608 62.5781 161.444 62.4141 161.444 62.0586V58.3672C161.444 56.6719 160.241 55.6602 158.272 55.6602C156.85 55.6602 155.674 56.1523 154.717 57.0547L155.729 58.1211C156.385 57.4375 157.26 57.0273 158.19 57.0273C159.229 57.0273 159.912 57.4648 159.912 58.1211C159.912 58.75 159.311 58.8594 158.08 59.0234C156.467 59.2695 154.553 59.707 154.553 61.7031C154.553 63.1523 155.647 64.1367 157.233 64.1367C158.436 64.1367 159.53 63.5898 160.104 62.7695C160.213 63.6992 160.678 64.0547 161.69 64.0547C161.963 64.0547 162.182 64.0273 162.264 64V62.5781H161.963ZM157.506 62.7969C156.659 62.7969 156.166 62.3867 156.166 61.6211C156.166 60.5547 157.233 60.3906 158.272 60.2266C159.065 60.0898 159.557 60.0078 159.858 59.8164V60.8828C159.858 61.9219 158.764 62.7969 157.506 62.7969Z" fill="white"/>
<path d="M169.449 55.7969V59.0508H165.457V55.7969H163.816V64H165.457V60.582H169.449V64H171.09V55.7969H169.449Z" fill="white"/>
<path d="M173.435 54.6484H175.239V53.0078H173.435V54.6484ZM173.517 64H175.157V55.7969H173.517V64Z" fill="white"/>
<path d="M182.998 59.7891C183.737 59.4609 184.174 58.832 184.174 57.9297C184.174 56.4531 183.053 55.7969 181.248 55.7969H177.584V64H181.549C183.326 64 184.393 63.2344 184.393 61.7852C184.393 60.7734 183.901 60.1172 182.998 59.7891ZM179.143 57.082H181.33C182.096 57.082 182.561 57.4648 182.561 58.1211C182.561 58.8867 182.151 59.1875 181.248 59.1875H179.143V57.082ZM181.385 62.6875H179.143V60.418H181.303C182.205 60.418 182.752 60.8555 182.752 61.5664C182.752 62.25 182.233 62.6875 181.385 62.6875Z" fill="white"/>
<path d="M119.148 73.6094L117.125 79.4883H116.277L113.188 73.6094H111.246L114.5 79.4883H113.379C112.723 79.9805 112.367 80.7461 112.367 81.6211C112.367 83.125 113.406 84.1367 114.965 84.1367C116.414 84.1367 117.453 83.2617 118.082 81.5117L120.98 73.6094H119.148ZM115.02 82.6875C114.363 82.6875 113.953 82.2773 113.953 81.5938C113.953 81.293 114.062 81.0195 114.254 80.8008H116.66L116.441 81.4297C116.113 82.2773 115.703 82.6875 115.02 82.6875Z" fill="white"/>
<path d="M129.286 82.5508C129.04 82.5508 128.876 82.3867 128.876 82.1406V79.1328H127.372L129.45 75.7969H127.7L125.759 79.0508H124.091V73.0625H122.45V84H124.091V80.582H127.263V82.4688C127.263 83.4805 127.837 84 128.849 84H129.587V82.5508H129.286Z" fill="white"/>
<path d="M135.569 75.6602C134.393 75.6602 133.409 76.1797 132.753 77.1094L132.643 75.7969H131.221V86.7344H132.862V82.9062C133.491 83.6992 134.448 84.1367 135.569 84.1367C137.674 84.1367 139.151 82.4141 139.151 79.8984C139.151 77.3281 137.729 75.6602 135.569 75.6602ZM135.131 82.7422C133.682 82.7422 132.753 81.6211 132.753 79.8984C132.753 78.1758 133.682 77.0547 135.131 77.0547C136.553 77.0547 137.483 78.1758 137.483 79.8984C137.483 81.6211 136.553 82.7422 135.131 82.7422Z" fill="white"/>
<path d="M147.32 82.5781C146.965 82.5781 146.801 82.4141 146.801 82.0586V78.3672C146.801 76.6719 145.597 75.6602 143.629 75.6602C142.207 75.6602 141.031 76.1523 140.074 77.0547L141.086 78.1211C141.742 77.4375 142.617 77.0273 143.547 77.0273C144.586 77.0273 145.269 77.4648 145.269 78.1211C145.269 78.75 144.668 78.8594 143.437 79.0234C141.824 79.2695 139.91 79.707 139.91 81.7031C139.91 83.1523 141.004 84.1367 142.59 84.1367C143.793 84.1367 144.887 83.5898 145.461 82.7695C145.57 83.6992 146.035 84.0547 147.047 84.0547C147.32 84.0547 147.539 84.0273 147.621 84V82.5781H147.32ZM142.863 82.7969C142.015 82.7969 141.523 82.3867 141.523 81.6211C141.523 80.5547 142.59 80.3906 143.629 80.2266C144.422 80.0898 144.914 80.0078 145.215 79.8164V80.8828C145.215 81.9219 144.121 82.7969 142.863 82.7969Z" fill="white"/>
<path d="M147.833 74.6484H149.61V73.0078H147.833V74.6484ZM150.65 74.6484H152.427V73.0078H150.65V74.6484ZM149.31 84H150.95V75.7969H149.31V84Z" fill="white"/>
<path d="M159.01 75.7969V79.0508H155.018V75.7969H153.377V84H155.018V80.582H159.01V84H160.651V75.7969H159.01Z" fill="white"/>
<path d="M168.547 75.7969L164.554 81.7031V75.7969H162.941V84H164.609L168.629 78.0391V84H170.242V75.7969H168.547Z" fill="white"/>
</svg>
